<svg width="115" height="38" viewBox="0 0 115 38" fill="none" xmlns="http://www.w3.org/2000/svg">
<path d="M0.199219 31V0.976562H18.5947V7.55957H8.17676V12.7686H18V19.208H8.17676V24.2734H18.5947V31H0.199219Z" fill="#007BFF"/>
<path d="M25.1461 11.396V28.764H31.1001V31H22.7021V11.396H25.1461ZM43.132 25.306H33.85C33.876 27.386 35.28 29.336 37.516 29.336C39.31 29.336 40.272 28.426 41.156 26.97L43.132 28.088C41.988 30.194 39.856 31.416 37.49 31.416C33.772 31.416 31.51 28.608 31.51 25.02C31.51 21.276 33.512 18.468 37.438 18.468C41.312 18.468 43.132 21.328 43.132 24.942V25.306ZM33.98 23.538H40.792C40.506 21.718 39.31 20.496 37.438 20.496C35.618 20.496 34.266 21.796 33.98 23.538ZM50.3933 29.336C52.9413 29.336 54.3453 27.308 54.3453 24.916C54.3453 22.55 52.9153 20.548 50.3933 20.548C47.9753 20.548 46.5453 22.654 46.5453 24.916C46.5453 27.204 47.9233 29.336 50.3933 29.336ZM56.5553 18.832V31H54.2153V29.102H54.1633C53.2273 30.48 51.7713 31.416 50.0293 31.416C46.3113 31.416 44.2053 28.322 44.2053 24.838C44.2053 21.51 46.4153 18.468 49.9513 18.468C51.7453 18.468 53.2013 19.404 54.1633 20.86H54.2153V18.832H56.5553ZM62.0846 18.832V20.808H62.1626C62.7346 19.378 63.9306 18.468 65.4906 18.468C66.1666 18.468 66.8426 18.702 67.4146 19.066L66.3486 21.198C65.9326 20.834 65.4646 20.704 64.9186 20.704C62.3966 20.704 62.0846 23.044 62.0846 25.02V31H59.7446V18.832H62.0846ZM71.2469 18.832V20.47H71.2989C72.0269 19.17 73.4829 18.468 74.9649 18.468C78.3969 18.468 79.2809 20.782 79.2809 23.746V31H76.9409V24.032C76.9409 21.952 76.6549 20.548 74.2629 20.548C71.2469 20.548 71.2469 23.2 71.2469 25.41V31H68.9069V18.832H71.2469ZM85.3763 18.832V31H83.0363V18.832H85.3763ZM84.2063 11.63C85.0903 11.63 85.8183 12.358 85.8183 13.268C85.8183 14.152 85.0903 14.854 84.2063 14.854C83.3223 14.854 82.5943 14.152 82.5943 13.268C82.5943 12.358 83.3223 11.63 84.2063 11.63ZM91.4579 18.832V20.47H91.5099C92.2379 19.17 93.6939 18.468 95.1759 18.468C98.6079 18.468 99.4919 20.782 99.4919 23.746V31H97.1519V24.032C97.1519 21.952 96.8659 20.548 94.4739 20.548C91.4579 20.548 91.4579 23.2 91.4579 25.41V31H89.1179V18.832H91.4579ZM107.953 29.336C110.501 29.336 111.905 27.308 111.905 24.916C111.905 22.55 110.475 20.548 107.953 20.548C105.535 20.548 104.105 22.654 104.105 24.916C104.105 27.204 105.483 29.336 107.953 29.336ZM114.115 18.832V30.766C114.115 34.952 112.919 37.968 108.187 37.968C104.807 37.968 102.363 35.888 102.311 32.456H104.651C104.651 34.64 106.159 35.888 108.291 35.888C111.177 35.888 111.775 33.912 111.775 31.416V29.102H111.723C110.787 30.48 109.305 31.416 107.589 31.416C103.845 31.416 101.765 28.322 101.765 24.838C101.765 21.51 103.975 18.468 107.485 18.468C109.305 18.468 110.761 19.404 111.723 20.912H111.775V18.832H114.115Z" fill="white"/>
</svg>
